<svg width="54.189" height="41.04" viewBox="0 0 54.189 41.04" xmlns="http://www.w3.org/2000/svg"><g id="svgGroup" stroke-linecap="round" fill-rule="evenodd" font-size="9pt" stroke="#000" stroke-width="0.25mm" fill="black" style="stroke:#000;stroke-width:0.25mm;fill:black"><path d="M 41.88 22.74 L 41.76 23.16 Q 42.12 23.16 42.51 23.19 Q 42.845 23.216 43.114 23.22 A 6.388 6.388 0 0 0 43.2 23.22 A 14.607 14.607 0 0 0 44.049 23.255 Q 46.05 23.278 47.531 22.7 A 6.712 6.712 0 0 0 47.58 22.68 A 4.64 4.64 0 0 0 48.348 22.325 Q 49.056 21.908 49.38 21.3 Q 49.551 21.072 49.668 21.061 A 0.125 0.125 0 0 1 49.68 21.06 A 0.413 0.413 0 0 1 49.893 21.114 Q 49.978 21.164 50.038 21.259 A 0.694 0.694 0 0 1 50.1 21.39 A 0.797 0.797 0 0 1 50.142 21.561 Q 50.173 21.799 50.04 22.02 A 3.21 3.21 0 0 1 49.051 23.062 Q 48.488 23.447 47.7 23.7 A 6.493 6.493 0 0 1 46.465 24.093 A 8.379 8.379 0 0 1 45.51 24.24 Q 44.28 24.36 42.96 24.3 L 42.6 24.3 L 41.88 24.24 L 41.52 24.24 Q 40.62 27.54 40.26 31.08 A 3.124 3.124 0 0 0 40.209 31.443 A 2.592 2.592 0 0 0 40.2 31.65 L 40.2 32.22 A 9.393 9.393 0 0 0 40.265 33.382 Q 40.416 34.58 40.912 35.143 A 1.458 1.458 0 0 0 42.06 35.64 Q 43.236 35.64 44.845 34.602 A 11.662 11.662 0 0 0 44.91 34.56 A 24.138 24.138 0 0 0 46.785 33.193 A 30.714 30.714 0 0 0 48.27 31.92 A 48.042 48.042 0 0 0 50.279 29.982 A 40.33 40.33 0 0 0 51.36 28.83 Q 52.74 27.3 53.4 26.4 Q 53.499 26.301 53.681 26.284 A 0.844 0.844 0 0 1 53.76 26.28 A 0.791 0.791 0 0 1 53.922 26.295 Q 54.321 26.379 54.123 26.932 A 1.737 1.737 0 0 1 54.12 26.94 A 5.227 5.227 0 0 1 54.048 27.045 Q 53.871 27.295 53.351 28.007 A 402.951 402.951 0 0 1 53.1 28.35 A 24.238 24.238 0 0 1 52.368 29.296 Q 52.004 29.745 51.572 30.244 A 55.023 55.023 0 0 1 50.64 31.29 A 29.195 29.195 0 0 1 48.597 33.31 A 36.587 36.587 0 0 1 46.98 34.68 A 10.735 10.735 0 0 1 45.542 35.643 Q 44.591 36.168 43.65 36.39 Q 42.316 36.705 41.512 36.766 A 4.722 4.722 0 0 1 41.16 36.78 A 2.938 2.938 0 0 1 38.853 35.733 A 4.16 4.16 0 0 1 38.49 35.25 Q 37.5 33.72 37.5 31.32 A 18.462 18.462 0 0 1 37.733 28.442 A 21.102 21.102 0 0 1 37.86 27.72 Q 38.22 25.86 38.7 24 Q 36.96 23.82 35.16 23.61 Q 33.36 23.4 31.56 23.16 Q 27.96 27.54 24.39 31.35 A 67.868 67.868 0 0 1 21.458 34.303 Q 20.008 35.672 18.64 36.77 A 36.037 36.037 0 0 1 17.7 37.5 Q 15.36 39.18 12.87 40.11 A 14.256 14.256 0 0 1 8.018 41.039 A 13.647 13.647 0 0 1 7.86 41.04 Q 5.88 41.04 4.08 40.38 Q 2.28 39.72 1.14 38.28 A 5.163 5.163 0 0 1 0.135 36.054 A 7.28 7.28 0 0 1 0 34.62 Q 0 34.08 0.27 33.63 A 2.063 2.063 0 0 1 0.387 33.455 Q 0.513 33.286 0.632 33.221 A 0.307 0.307 0 0 1 0.78 33.18 A 0.319 0.319 0 0 1 1.056 33.354 Q 1.227 33.628 1.255 34.334 A 7.35 7.35 0 0 1 1.26 34.62 A 3.799 3.799 0 0 0 1.592 36.23 Q 2.02 37.158 3 37.8 Q 4.38 38.7 6.72 38.7 A 14.448 14.448 0 0 0 10.023 38.303 A 17.699 17.699 0 0 0 11.58 37.86 Q 14.1 37.02 16.38 35.46 Q 19.08 33.66 22.41 30.27 Q 25.74 26.88 29.34 22.86 Q 26.46 22.56 23.61 22.2 Q 20.76 21.84 17.88 21.84 Q 15.96 21.84 14.04 22.23 Q 12.12 22.62 10.56 23.7 A 5.948 5.948 0 0 0 8.8 25.639 A 8.038 8.038 0 0 0 8.22 26.88 A 10.071 10.071 0 0 1 8.157 27.118 Q 8.123 27.243 8.082 27.381 A 16.826 16.826 0 0 1 8.07 27.42 Q 7.98 27.72 7.98 28.02 A 2.056 2.056 0 0 0 8.122 28.788 A 1.948 1.948 0 0 0 8.28 29.1 A 11.809 11.809 0 0 1 8.321 29.225 Q 8.389 29.437 8.399 29.503 A 0.126 0.126 0 0 1 8.4 29.52 A 0.885 0.885 0 0 1 8.379 29.724 Q 8.313 29.999 8.047 30.049 A 0.692 0.692 0 0 1 7.92 30.06 A 0.689 0.689 0 0 1 7.369 29.799 A 1.079 1.079 0 0 1 7.26 29.64 A 4.411 4.411 0 0 1 6.832 28.506 Q 6.708 27.984 6.674 27.372 A 8.68 8.68 0 0 1 6.66 26.88 A 13.893 13.893 0 0 1 6.769 25.082 Q 6.885 24.194 7.125 23.466 A 5.569 5.569 0 0 1 7.83 22.02 Q 9 20.34 10.98 19.74 A 14.134 14.134 0 0 1 14.222 19.171 A 16.59 16.59 0 0 1 15.24 19.14 Q 16.26 19.14 17.37 19.23 Q 18.48 19.32 19.56 19.44 Q 22.2 19.68 25.02 20.25 Q 27.84 20.82 30.66 21.42 Q 33.78 17.76 36.81 14.04 Q 39.84 10.32 42.48 6.99 A 914.348 914.348 0 0 0 44.35 4.623 Q 45.084 3.692 45.741 2.851 A 471.744 471.744 0 0 0 46.98 1.26 A 0.381 0.381 0 0 1 47.061 1.12 Q 47.123 1.052 47.22 1.02 Q 47.329 0.912 47.388 0.901 A 0.07 0.07 0 0 1 47.4 0.9 A 5.597 5.597 0 0 1 47.996 0.622 Q 48.474 0.43 49.08 0.27 A 19.209 19.209 0 0 1 49.495 0.165 Q 50.179 0 50.46 0 A 0.778 0.778 0 0 1 50.708 0.036 Q 51.054 0.152 51.06 0.641 A 1.422 1.422 0 0 1 51.06 0.66 A 0.382 0.382 0 0 1 51.044 0.761 Q 50.99 0.953 50.76 1.32 Q 47.76 6.42 45.63 11.76 Q 43.5 17.1 41.88 22.74 Z M 44.4 6.72 L 44.7 6 Q 42.12 9.6 39.03 13.68 Q 35.94 17.76 32.76 21.78 Q 34.32 22.08 35.88 22.35 Q 37.44 22.62 38.94 22.86 Q 40.02 18.66 41.49 14.43 Q 42.96 10.2 44.4 6.72 Z" vector-effect="non-scaling-stroke"/></g></svg>