<?xml version="1.0" standalone="no"?>
<!DOCTYPE svg PUBLIC "-//W3C//DTD SVG 20010904//EN"
 "http://www.w3.org/TR/2001/REC-SVG-20010904/DTD/svg10.dtd">
<svg version="1.0" xmlns="http://www.w3.org/2000/svg"
 width="192.000000pt" height="192.000000pt" viewBox="0 0 192.000000 192.000000"
 preserveAspectRatio="xMidYMid meet">
<metadata>
Created by potrace 1.14, written by Peter Selinger 2001-2017
</metadata>
<g transform="translate(0.000000,192.000000) scale(0.100000,-0.100000)"
fill="#000000" stroke="none">
<path d="M1222 1202 c-73 -92 -148 -184 -165 -205 l-33 -38 -74 16 c-90 20
-243 30 -294 21 -83 -16 -139 -110 -116 -195 17 -65 60 -66 60 -2 0 48 28 86
78 102 39 13 202 14 260 1 l34 -7 -109 -106 c-110 -107 -168 -146 -252 -169
-80 -21 -151 10 -151 65 0 31 -26 43 -47 22 -24 -23 -8 -84 32 -124 l33 -33
104 0 c97 0 106 2 158 32 54 30 198 167 276 260 l39 47 58 -6 c53 -5 58 -8 53
-27 -4 -12 -9 -47 -12 -78 -14 -126 55 -188 162 -143 67 28 216 188 199 215
-12 20 -29 9 -114 -73 -48 -46 -101 -89 -119 -95 -30 -10 -32 -9 -38 14 -6 24
1 102 13 152 4 19 12 22 49 22 25 0 60 6 79 14 34 15 61 49 50 66 -8 13 -45
13 -45 1 0 -11 -55 -31 -86 -31 -13 0 -24 5 -24 11 0 30 68 206 120 311 32 64
55 119 52 122 -3 3 -26 6 -51 6 l-46 -1 -133 -167z m-3 -154 c-16 -46 -28 -91
-28 -101 -1 -15 -7 -17 -38 -11 -21 4 -40 8 -42 10 -3 3 129 184 134 184 0 0
-11 -37 -26 -82z"/>
</g>
</svg>
